<svg xmlns="http://www.w3.org/2000/svg" viewBox="0 0 14 12" fill="#b5a484">
  <path d="M13.9 1.5c-.4.6-.8 1-1.4 1.4v.4c0 .7-.1 1.5-.3 2.2s-.5 1.5-1 2.1c-.4.7-1 1.3-1.6 1.8-.6.5-1.4.9-2.2 1.3-.9.3-1.8.5-2.8.5-1.6 0-3-.4-4.3-1.2H1c1.3 0 2.4-.4 3.4-1.2-.6 0-1.1-.2-1.6-.6s-.8-.8-1-1.4h.5c.2 0 .5 0 .7-.1-.6-.1-1.2-.5-1.6-1C1 5.2.8 4.6.8 3.9c.4.2.8.3 1.3.4-.4-.3-.7-.6-.9-1C1 2.9.9 2.5.9 2S1 1 1.3.6c.7.9 1.5 1.5 2.5 2s2.1.8 3.2.9v-.6c0-.8.3-1.4.8-2C8.3.4 9 .1 9.8.1s1.5.3 2 .9c.6-.1 1.2-.3 1.8-.7-.2.7-.6 1.2-1.2 1.5.5.1 1-.1 1.5-.3z"/>
</svg>
