<svg xmlns="http://www.w3.org/2000/svg" viewBox="0 0 22.3 22.3" fill="#bd3131">
  <path d="M19.6 3.9h-1.8V3c0-1.2-1-2.3-2.3-2.3H3.3C2.1.7 1 1.7 1 3v15.7c0 1.6 1.3 3 3 3h14.9c1.4 0 2.5-1.1 2.5-2.5V5.7c0-1-.8-1.8-1.8-1.8zM4 20.3c-.9 0-1.6-.7-1.6-1.6V3c0-.5.4-.9.9-.9h12.2c.5 0 .9.4.9.9v16.1c0 .4.1.8.3 1.1H4zm16-1.2c0 .6-.5 1.1-1.1 1.1s-1.1-.5-1.1-1.1V5.3h1.8c.2 0 .5.2.5.5v13.3z"/>
  <path d="M4.2 11.1h5.7c.4 0 .7-.3.7-.7V4.6c0-.4-.3-.7-.7-.7H4.2c-.4.1-.7.4-.7.7v5.7c0 .5.4.8.7.8zm.7-5.8h4.3v4.4H4.9V5.3zM14.6 15.9H4.4c-.4 0-.7.3-.7.7s.3.7.7.7h10.2c.4 0 .7-.3.7-.7s-.3-.7-.7-.7zM14.6 12.9H4.4c-.4 0-.7.3-.7.7 0 .4.3.7.7.7h10.2c.4 0 .7-.3.7-.7 0-.4-.3-.7-.7-.7zM14.6 6.8H12c-.4 0-.7.3-.7.7 0 .4.3.7.7.7h2.7c.4 0 .7-.3.7-.7-.1-.4-.4-.7-.8-.7zM14.6 9.8H12c-.4 0-.7.3-.7.7 0 .4.3.7.7.7h2.7c.4 0 .7-.3.7-.7-.1-.4-.4-.7-.8-.7zM14.6 4.1H12c-.4 0-.7.3-.7.7 0 .4.3.7.7.7h2.7c.4 0 .7-.3.7-.7-.1-.4-.4-.7-.8-.7z"/>
</svg>
