<svg id="Layer_1" xmlns="http://www.w3.org/2000/svg" viewBox="0 0 22.3 22.3" fill="#bd3131">
  <style>
    .st0{fill:#bd3131}
  </style>
  <g id="Symbols">
    <g id="GalleryICon_12_" transform="translate(-17 -18)">
      <g id="Group-6_12_">
        <g id="Group-5_12_" transform="translate(17 18)">
          <path class="st0" d="M20.4 10.2h-6.5c-1 0-1.8-.8-1.8-1.8V2.9c0-1 .8-1.8 1.8-1.8h6.5c1 0 1.8.8 1.8 1.8v5.5c0 1-.8 1.8-1.8 1.8zm-6.5-7.5c-.1 0-.2.1-.2.2v5.5c0 .1.1.2.2.2h6.5c.1 0 .2-.1.2-.2V2.9c0-.1-.1-.2-.2-.2h-6.5z" id="Rectangle-4_55_"/>
          <path class="st0" d="M8.4 10.2H1.9c-1 0-1.8-.8-1.8-1.8V2.9c0-1 .8-1.8 1.8-1.8h6.5c1 0 1.8.8 1.8 1.8v5.5c0 1-.8 1.8-1.8 1.8zM1.9 2.7c-.1 0-.2.1-.2.2v5.5c0 .1.1.2.2.2h6.5c.1 0 .2-.1.2-.2V2.9c0-.1-.1-.2-.2-.2H1.9z" id="Rectangle-4_54_"/>
          <path class="st0" d="M8.4 21.2H1.9c-1 0-1.8-.8-1.8-1.8v-5.5c0-1 .8-1.8 1.8-1.8h6.5c1 0 1.8.8 1.8 1.8v5.5c0 1-.8 1.8-1.8 1.8zm-6.5-7.5c-.1 0-.2.1-.2.2v5.5c0 .1.1.2.2.2h6.5c.1 0 .2-.1.2-.2v-5.5c0-.1-.1-.2-.2-.2H1.9z" id="Rectangle-4_53_"/>
          <path class="st0" d="M20.4 21.2h-6.5c-1 0-1.8-.8-1.8-1.8v-5.5c0-1 .8-1.8 1.8-1.8h6.5c1 0 1.8.8 1.8 1.8v5.5c0 1-.8 1.8-1.8 1.8zm-6.5-7.5c-.1 0-.2.1-.2.2v5.5c0 .1.1.2.2.2h6.5c.1 0 .2-.1.2-.2v-5.5c0-.1-.1-.2-.2-.2h-6.5z" id="Rectangle-4_52_"/>
        </g>
      </g>
    </g>
  </g>
</svg>
