<svg xmlns="http://www.w3.org/2000/svg" viewBox="0 0 22.3 22.3" fill="#bd3131">
  <path d="M21.1.9c-.1-.1-.3-.2-.4-.2h-19c-.2 0-.3.1-.4.2s-.2.3-.2.5l1.6 17.9c.1 1 .9 1.8 2 1.8h13.1c1 0 1.9-.8 2-1.8l1.6-17.9c-.1-.2-.2-.4-.3-.5zm-18 9.3h1v2.2c0 1.1.9 2 2 2h3.8c1 0 1.8-.6 2-1.5l.7.3c.2.1.5.1.7.1.3 0 .6-.1.9-.2.5-.2.9-.6 1.1-1.2l.6-1.8H17l-.2 3c0 .3.2.6.5.6s.6-.2.6-.5l.3-3.2h1.2l-.4 5.1H3.6l-.5-4.9zM15.4 8L15 9h-3.1v-.4c0-1.1-.8-2-1.9-2l.2-.5c.1-.2.2-.4.4-.5.2-.1.4-.1.6 0l3.6 1.3c.2.1.4.2.5.4.1.2.1.4.1.7zm-3.5 2.2h2.6l-.5 1.4c-.1.2-.2.4-.4.5-.2.1-.4.1-.6 0l-1-.4-.1-1.5zm-2-2.4c.5 0 .8.4.8.8V9H5.2v-.4c0-.5.4-.8.8-.8h3.9zm.9 2.4v2.2c0 .5-.4.8-.8.8H6.1c-.5 0-.8-.4-.8-.8v-2.2h5.5zM20 1.9L19.4 9h-1.3l.4-4.4c0-.3-.2-.6-.5-.6s-.6.2-.6.5L17 9h-.7l.2-.6c.2-.5.2-1.1-.1-1.6-.2-.5-.6-.9-1.2-1.1l-3.6-1.3c-.5-.2-1.1-.2-1.6.1-.4.3-.8.7-.9 1.2l-.4.8H6.1c-1.1 0-2 .9-2 2v.4H3l-.6-7H20zm-2.3 18h-13c-.4 0-.7-.3-.8-.7l-.2-2.7h15.1l-.2 2.7c-.1.4-.5.7-.9.7z"/>
</svg>
