<svg xmlns="http://www.w3.org/2000/svg" viewBox="0 0 22.3 22.3" fill="#bd3131">
  <path d="M11.9 20.438h3.6c.5 0 .9-.4.9-.9v-1l4.5 1c.5.1 1.1-.3 1.2-.9v-7.5c-.1-.7-.7-1-1.2-.9l-4.5 1v-1c0-.5-.4-.9-.9-.9H15c.9-.8 1.5-2.1 1.5-3.4 0-2.6-2.1-4.7-4.7-4.7-1.9 0-3.6 1.2-4.3 2.8-.7-1-1.9-1.6-3.2-1.6-2.2 0-4.1 1.8-4.1 4.1 0 1.1.4 2.1 1.2 2.8h-.2c-.5 0-.9.5-.9.9v9.4c0 .5.4.9.9.9h10.7zm-.1-17.5c1.6 0 2.8 1.2 2.8 2.8 0 1.6-1.2 2.8-2.8 2.8S9 7.338 9 5.738c0-1.5 1.2-2.8 2.8-2.8zm-7.5 1.3c1.2 0 2.2 1 2.2 2.2 0 1.2-1 2.2-2.2 2.2s-2.2-1-2.2-2.2c0-1.2 1-2.2 2.2-2.2zm3.6 4.1c.2.3.5.6.7.9H7.2c.3-.3.5-.6.7-.9zm-5.8 2.8h12.5v7.5H2.1v-7.5zm18.1 1.1v5.2l-3.7-.8v-3.5l3.7-.9zm-13 8.2"/>
</svg>
